<svg xmlns="http://www.w3.org/2000/svg" width="16.006" height="23.997" viewBox="520 43 16.006 23.997"><path d="M528.003 43A8.045 8.045 0 0 0 520 51.086c0 4.171 6.983 14.432 7.903 15.767a30.546 30.546 0 0 0 .1.144s7.569-10.825 7.985-15.527a4.36 4.36 0 0 0 .018-.384c0-4.466-3.583-8.086-8.003-8.086Zm0 11.329c-2.051 0-3.714-1.68-3.714-3.753 0-2.073 1.663-3.753 3.714-3.753a3.734 3.734 0 0 1 3.714 3.753 3.734 3.734 0 0 1-3.714 3.753Z" fill="rgba(58, 58, 58, 1)" fill-rule="evenodd" data-name="Shape 1"/></svg>