<svg xmlns="http://www.w3.org/2000/svg" width="24.7" height="26.9" viewBox="455 34 24.7 26.9"><path fill="rgba(35, 158, 70, 1)" fill-rule="evenodd" d="M479.7 40.8a41.6 41.6 0 0 1-.2 3.2c-.2 2.3-.7 4.5-1.5 6.6a18.6 18.6 0 0 1-2.9 5.4 14 14 0 0 1-7.2 4.8 2 2 0 0 1-1.1 0 8.6 8.6 0 0 1-.3-.1 14 14 0 0 1-7.7-5.8 21.3 21.3 0 0 1-2.9-6.8 31.2 31.2 0 0 1-.7-4.4 36.1 36.1 0 0 1-.2-3.7 36.5 36.5 0 0 1 0-.3c0-.7.5-1.2 1.1-1.3a18.6 18.6 0 0 0 4.1-.8 24.4 24.4 0 0 0 6.6-3.4 1.7 1.7 0 0 1 .2 0c.3-.2.5-.2.8 0a1.8 1.8 0 0 1 .1 0 25 25 0 0 0 5.4 3 19.8 19.8 0 0 0 4.3 1.1 24.2 24.2 0 0 0 .5 0l.7.2a1.2 1.2 0 0 1 1 1.1 28.5 28.5 0 0 1 0 .4v.7Zm-7.2 4.7a.6.6 0 0 0-.2-.5v-.1a272.7 272.7 0 0 0-.8-.8 1.3 1.3 0 0 0-.2-.1c-.2-.2-.5-.2-.8 0a1.4 1.4 0 0 0 0 .1 14601.9 14601.9 0 0 1-.6.6 2265 2265 0 0 0-3.7 3.7h-.2l-1.8-1.9a.9.9 0 0 0-.2-.1c-.2-.2-.5-.1-.8.1l-.8.9a1.1 1.1 0 0 0-.1.1c-.2.3-.2.6 0 .8a1.3 1.3 0 0 0 .1.1 6780.9 6780.9 0 0 0 3.2 3.3c.3.3.7.3 1 0l2-2a6964 6964 0 0 1 .5-.5l3.2-3.2.2-.5Z" data-name="Shape 3"/></svg>